<svg width="24" height="24" viewBox="0 0 24 24" fill="none" xmlns="http://www.w3.org/2000/svg">
<path d="M9.28065 12C9.28065 12.6962 9.55721 13.3639 10.0495 13.8562C10.5418 14.3484 11.2095 14.625 11.9057 14.625C12.6018 14.625 13.2695 14.3484 13.7618 13.8562C14.2541 13.3639 14.5307 12.6962 14.5307 12C14.5307 11.3038 14.2541 10.6361 13.7618 10.1438C13.2695 9.65156 12.6018 9.375 11.9057 9.375C11.2095 9.375 10.5418 9.65156 10.0495 10.1438C9.55721 10.6361 9.28065 11.3038 9.28065 12ZM22.0822 11.3953C19.8603 6.71484 16.5017 4.35938 11.9994 4.35938C7.49472 4.35938 4.13847 6.71484 1.91659 11.3977C1.82747 11.5864 1.78125 11.7925 1.78125 12.0012C1.78125 12.2099 1.82747 12.416 1.91659 12.6047C4.13847 17.2852 7.49706 19.6406 11.9994 19.6406C16.5041 19.6406 19.8603 17.2852 22.0822 12.6023C22.2627 12.2227 22.2627 11.782 22.0822 11.3953ZM11.9057 16.125C9.62753 16.125 7.78065 14.2781 7.78065 12C7.78065 9.72188 9.62753 7.875 11.9057 7.875C14.1838 7.875 16.0307 9.72188 16.0307 12C16.0307 14.2781 14.1838 16.125 11.9057 16.125Z" fill="#718096"/>
</svg>
