<svg width="153" height="39" viewBox="0 0 153 39" fill="none" xmlns="http://www.w3.org/2000/svg">
<path d="M74.3254 3.72937H68.5042C68.3401 3.72937 68.207 3.85911 68.207 4.01916V35.9775C68.207 36.1375 68.3401 36.2673 68.5042 36.2673H74.3254C74.4895 36.2673 74.6225 36.1375 74.6225 35.9775V4.01916C74.6225 3.85911 74.4895 3.72937 74.3254 3.72937Z" fill="#1C4532"/>
<path d="M9.64019 15.3752L9.6513 18.1431C9.65315 18.3742 9.75683 18.5475 9.96235 18.6631L21.4075 25.0764C21.4859 25.1209 21.575 25.1443 21.6658 25.1443C21.7565 25.1443 21.8456 25.1209 21.9241 25.0764L36.3603 16.946C36.3916 16.9283 36.4272 16.9189 36.4634 16.9187C36.4996 16.9184 36.5352 16.9275 36.5665 16.9448C36.5977 16.9621 36.6237 16.9871 36.6416 17.0173C36.6596 17.0475 36.6689 17.0818 36.6686 17.1166C36.676 20.0651 36.6714 23.0488 36.6547 26.0677C36.6529 26.631 36.3085 27.1059 35.6216 27.4923C31.239 29.9713 26.8528 32.4431 22.4629 34.9077C21.8296 35.2625 21.152 35.0268 20.4938 34.6639C13.9616 31.0528 9.6013 28.6243 7.41281 27.3785C6.43244 26.8206 6.6324 24.9004 6.70739 23.9118C6.70984 23.875 6.72189 23.8394 6.74239 23.8085C6.76289 23.7775 6.79117 23.7521 6.82454 23.7347C6.85792 23.7174 6.89529 23.7086 6.93311 23.7093C6.97093 23.7099 7.00795 23.72 7.04066 23.7385L21.3492 31.7823C21.4464 31.8367 21.5565 31.8653 21.6686 31.8653C21.7806 31.8653 21.8907 31.8367 21.9879 31.7823L33.3137 25.3987C33.3972 25.3519 33.4667 25.2842 33.5149 25.2025C33.5632 25.1207 33.5886 25.0277 33.5886 24.9329L33.5997 22.2516C33.5997 22.0368 33.5034 21.9835 33.3109 22.0918L22.049 28.4239C21.7806 28.5756 21.5121 28.5756 21.2436 28.4239L6.98789 20.4208C6.88914 20.3649 6.80717 20.2847 6.75015 20.1882C6.69313 20.0917 6.66306 19.9824 6.66295 19.871C6.67036 18.3562 6.67406 16.8151 6.67406 15.2479C6.67128 13.9858 6.94345 13.2248 8.04048 12.6208C12.199 10.3296 16.3454 8.01574 20.4799 5.67935C21.8046 4.92914 23.1044 5.78226 24.2403 6.4756C24.4218 6.58754 24.4458 6.72476 24.3125 6.88726C24.2422 6.97032 24.119 7.0615 23.9431 7.16081C20.3456 9.18664 16.7509 11.2152 13.159 13.2464C13.0516 13.306 12.9655 13.3728 12.9007 13.4468C12.8915 13.4572 12.8847 13.4694 12.8809 13.4825C12.8772 13.4957 12.8764 13.5096 12.8788 13.5231C12.8812 13.5366 12.8867 13.5494 12.8948 13.5605C12.9029 13.5717 12.9135 13.581 12.9257 13.5877L15.5113 15.0312C15.5629 15.06 15.6211 15.0751 15.6801 15.0751C15.7391 15.0751 15.7968 15.06 15.8474 15.0312L27.2398 8.61518C27.364 8.54504 27.5049 8.50789 27.6487 8.50741C27.7924 8.50694 27.9339 8.54316 28.0591 8.61247C30.4123 9.91608 32.7962 11.263 35.2105 12.6533C35.4901 12.8158 35.7901 13.0469 36.1104 13.3466C36.1456 13.3791 36.1724 13.4192 36.1888 13.4636C36.2051 13.5081 36.2106 13.5558 36.2046 13.6029C36.1987 13.65 36.1816 13.6952 36.1546 13.7348C36.1276 13.7745 36.0916 13.8076 36.0493 13.8314L21.8241 21.8291C21.767 21.862 21.7017 21.8791 21.6352 21.8786C21.5687 21.8782 21.5035 21.8601 21.4464 21.8264L18.9524 20.3693C18.7561 20.2538 18.757 20.1391 18.9552 20.0254C22.7674 17.8768 26.5584 15.7291 30.3281 13.5823C30.404 13.5389 30.4466 13.5064 30.4558 13.4848C30.4723 13.4478 30.4706 13.4043 30.4511 13.3631C30.4315 13.3219 30.3955 13.2861 30.3503 13.2627L27.8647 11.941C27.7959 11.9046 27.7189 11.886 27.641 11.8869C27.5632 11.8879 27.4872 11.9084 27.4203 11.9464L15.914 18.4166C15.8371 18.4603 15.7495 18.4832 15.6603 18.4832C15.5711 18.4832 15.4833 18.4603 15.4058 18.4166L9.83737 15.2641C9.81743 15.2526 9.7947 15.2464 9.77151 15.2463C9.74832 15.2461 9.72551 15.252 9.70543 15.2633C9.68535 15.2747 9.66872 15.291 9.65725 15.3106C9.64578 15.3303 9.63989 15.3526 9.64019 15.3752Z" fill="#1C4532"/>
<path d="M39.4876 24.6485C39.2071 18.8121 42.8898 13.4713 48.6776 11.941C52.2964 10.985 56.4929 11.5944 59.6534 13.5769C64.7497 16.7754 66.1772 22.88 64.4914 28.4402C62.8612 33.8325 56.965 36.8848 51.4466 36.5788C44.5117 36.1969 39.8098 31.3625 39.4876 24.6485ZM51.9687 31.3318C53.693 31.4022 55.3795 30.7075 56.657 29.4004C57.9346 28.0932 58.6987 26.2808 58.7812 24.3618C58.8636 22.4427 58.2578 20.5743 57.0968 19.1675C55.9359 17.7607 54.315 16.9308 52.5907 16.8603C50.8665 16.7899 49.18 17.4846 47.9024 18.7917C46.6249 20.0989 45.8608 21.9113 45.7783 23.8303C45.6958 25.7494 46.3017 27.6178 47.4626 29.0246C48.6236 30.4314 50.2445 31.2613 51.9687 31.3318Z" fill="#1C4532"/>
<path d="M96.7846 15.08C96.8531 14.9897 96.8846 14.8832 96.879 14.7604C96.8457 13.9046 96.842 13.0451 96.8679 12.1821C96.8753 11.9672 96.9882 11.8598 97.2067 11.8598L102.939 11.8652C103.038 11.8652 103.134 11.9037 103.204 11.9723C103.274 12.0409 103.314 12.1339 103.314 12.2308V35.8881C103.314 35.9779 103.277 36.064 103.211 36.1275C103.146 36.191 103.057 36.2267 102.964 36.2267L97.1678 36.2321C97.1253 36.2321 97.0832 36.2239 97.0439 36.2079C97.0046 36.1919 96.969 36.1686 96.9391 36.1391C96.9091 36.1096 96.8854 36.0747 96.8694 36.0363C96.8534 35.9978 96.8453 35.9567 96.8457 35.9152L96.8679 33.3639C96.8716 32.9505 96.7327 32.899 96.4513 33.2096C93.8601 36.0804 89.9941 37.0771 86.1921 36.3106C74.8358 34.0194 74.0804 15.2614 85.3755 12.0358C89.4942 10.8604 93.7407 11.9898 96.6763 15.0881C96.6832 15.0954 96.6917 15.101 96.7012 15.1046C96.7108 15.1081 96.721 15.1096 96.7314 15.1088C96.7417 15.108 96.7518 15.1051 96.761 15.1001C96.7702 15.0951 96.7782 15.0882 96.7846 15.08ZM90.5059 31.2065C91.3748 31.1888 92.2312 30.9865 93.0263 30.6111C93.8214 30.2357 94.5395 29.6947 95.1397 29.0188C95.7399 28.343 96.2103 27.5456 96.5243 26.6722C96.8382 25.7987 96.9894 24.8664 96.9692 23.9284C96.9491 22.9903 96.758 22.065 96.4068 21.2051C96.0557 20.3453 95.5514 19.5678 94.9227 18.9171C94.294 18.2663 93.5533 17.7551 92.7428 17.4125C91.9323 17.0699 91.0679 16.9028 90.199 16.9205C89.33 16.9383 88.4736 17.1406 87.6785 17.516C86.8834 17.8913 86.1653 18.4324 85.5651 19.1082C84.965 19.7841 84.4945 20.5815 84.1806 21.4549C83.8667 22.3283 83.7155 23.2607 83.7356 24.1987C83.7558 25.1367 83.9469 26.0621 84.298 26.9219C84.6492 27.7818 85.1535 28.5592 85.7821 29.21C86.4108 29.8607 87.1515 30.372 87.962 30.7145C88.7725 31.0571 89.6369 31.2243 90.5059 31.2065Z" fill="#1C4532"/>
<path d="M141.666 14.9798C141.942 15.3012 142.078 15.2534 142.074 14.8363L142.057 12.2471C142.056 11.9925 142.186 11.8643 142.449 11.8625L148.017 11.8544C148.141 11.8544 148.26 11.9023 148.347 11.9877C148.435 12.073 148.484 12.1887 148.484 12.3094L148.492 35.899C148.492 35.9859 148.457 36.0692 148.394 36.1307C148.331 36.1922 148.245 36.2267 148.156 36.2267L142.332 36.2321C142.295 36.2321 142.257 36.2248 142.222 36.2106C142.187 36.1964 142.156 36.1756 142.129 36.1494C142.103 36.1233 142.082 36.0922 142.067 36.058C142.053 36.0239 142.046 35.9873 142.046 35.9504L142.063 33.2421C142.063 33.2052 142.052 33.1692 142.031 33.1387C142.009 33.1083 141.979 33.0849 141.944 33.0716C141.908 33.0584 141.87 33.056 141.833 33.0647C141.796 33.0733 141.763 33.0927 141.738 33.1202C139.99 35.0287 137.87 36.1509 135.378 36.4867C128.829 37.3696 123.647 32.7438 122.703 26.5959C121.894 21.3281 123.408 15.6081 128.549 12.9106C132.931 10.6113 138.497 11.2667 141.666 14.9798ZM135.692 31.1876C137.447 31.1518 139.113 30.3657 140.324 29.0023C141.536 27.639 142.194 25.8099 142.153 23.9176C142.133 22.9807 141.942 22.0564 141.591 21.1975C141.24 20.3387 140.736 19.5621 140.108 18.9121C139.479 18.2621 138.739 17.7514 137.929 17.4093C137.119 17.0671 136.254 16.9001 135.386 16.9178C133.632 16.9537 131.966 17.7397 130.754 19.1031C129.542 20.4665 128.885 22.2955 128.925 24.1878C128.945 25.1248 129.136 26.0491 129.487 26.9079C129.838 27.7668 130.342 28.5434 130.971 29.1934C131.599 29.8434 132.34 30.354 133.15 30.6962C133.96 31.0384 134.824 31.2054 135.692 31.1876Z" fill="#1C4532"/>
<path d="M112.578 15.3102C112.663 15.2795 112.746 15.2109 112.828 15.1044C114.502 12.9413 116.807 11.7848 119.743 11.635C119.782 11.6331 119.82 11.6389 119.856 11.652C119.892 11.665 119.925 11.6851 119.953 11.7109C119.98 11.7368 120.002 11.7679 120.018 11.8023C120.033 11.8367 120.04 11.8738 120.04 11.9112L120.021 17.8777C120.021 17.9052 120.01 17.9317 119.99 17.9514C119.97 17.9712 119.944 17.9826 119.915 17.9833C116.513 18.07 112.781 18.4329 112.536 22.6796C112.283 27.0752 112.403 31.5196 112.403 35.8935C112.403 35.9826 112.367 36.068 112.303 36.131C112.239 36.194 112.152 36.2294 112.061 36.2294L106.373 36.2321C106.281 36.2321 106.192 36.1958 106.126 36.1313C106.06 36.0668 106.023 35.9793 106.023 35.8881V12.3635C106.023 12.2978 106.036 12.2328 106.062 12.172C106.087 12.1112 106.125 12.056 106.173 12.0094C106.221 11.9628 106.277 11.9259 106.34 11.9007C106.402 11.8755 106.47 11.8625 106.537 11.8625L112.075 11.8544C112.122 11.8544 112.168 11.8633 112.21 11.8806C112.253 11.898 112.292 11.9234 112.325 11.9554C112.357 11.9874 112.383 12.0254 112.4 12.0671C112.417 12.1088 112.426 12.1534 112.425 12.1983L112.4 15.1883C112.4 15.3129 112.459 15.3535 112.578 15.3102Z" fill="#1C4532"/>
</svg>
